<svg width="136" height="35" viewBox="0 0 136 35" fill="none" xmlns="http://www.w3.org/2000/svg">
<path d="M111.362 24.8223C115.642 24.8223 118.144 23.8229 118.871 21.8282L119.597 19.9217H114.13L113.416 21.7862C113.239 22.2817 112.841 22.5337 112.236 22.5337C111.619 22.5337 111.4 22.2817 111.581 21.782L112.832 18.3427H120.139L122.193 12.703C122.919 10.7041 121.143 9.70469 116.864 9.70469C112.622 9.70469 110.124 10.7461 109.368 12.829L106.138 21.6938C105.383 23.7809 107.121 24.8223 111.362 24.8223ZM114.873 12.7366C115.049 12.2411 115.453 11.9975 116.07 11.9975C116.675 11.9975 116.893 12.2411 116.712 12.7366L115.453 16.1843H113.613L114.873 12.7366ZM48.347 5.73631C47.2552 5.25338 45.8778 5.00982 44.2107 5.00982C39.8937 5.00982 37.3573 6.05126 36.5931 8.13413L33.3722 16.999C32.6121 19.086 34.3884 20.1275 38.7053 20.1275C42.9047 20.1275 45.3739 19.128 46.1004 17.1291L49.4179 8.00815C49.7958 6.97931 49.4388 6.21923 48.347 5.73631ZM43.9461 8.02495L40.6454 17.0829C40.4648 17.5869 40.0701 17.8346 39.4654 17.8346C38.8439 17.8346 38.6255 17.5827 38.8103 17.0829L42.111 8.02495C42.2874 7.54202 42.6821 7.29846 43.3078 7.29846C43.9083 7.29846 44.1225 7.54202 43.9461 8.02495ZM108.826 9.79287H103.468L98.4284 18.5443L99.8016 9.79287H94.2543L92.7593 24.6082H99.4069L108.826 9.79287ZM65.1066 8.12153C65.3922 7.34046 65.0856 6.73995 64.1827 6.32001C63.2841 5.90428 62.2175 5.69431 60.9828 5.69431C59.7566 5.69431 58.6186 5.92948 57.5562 6.3956L57.3168 5.7783H53.1763L46.6379 23.7473H52.1054L53.3736 20.2618C53.9783 20.6272 55.0366 20.812 56.5567 20.812C57.6486 20.812 58.6438 20.623 59.5467 20.2492C60.4411 19.8755 61.0038 19.38 61.2348 18.7585L65.1066 8.12153ZM59.4375 8.66325L56.0948 17.8472C55.931 18.2965 55.5447 18.5233 54.94 18.5233C54.3185 18.5233 54.0917 18.3049 54.2513 17.8724L57.6024 8.66325C57.7661 8.21392 58.1567 7.98715 58.774 7.98715C59.3787 7.98715 59.6055 8.21392 59.4375 8.66325ZM78.5151 12.8332L75.29 21.698C74.5299 23.7809 76.2727 24.8223 80.514 24.8223C84.7931 24.8223 87.2917 23.8229 88.0224 21.8282L88.7489 19.9217H83.273L82.5633 21.7862C82.3827 22.2817 81.988 22.5337 81.3833 22.5337C80.766 22.5337 80.5434 22.2817 80.7282 21.782L81.9796 18.3427H89.2906L91.3441 12.703C92.0706 10.7041 90.2943 9.70469 86.0193 9.70469C81.7738 9.70469 79.2752 10.7461 78.5151 12.8332ZM84.0205 12.7366C84.201 12.2411 84.6 11.9975 85.2173 11.9975C85.822 11.9975 86.0403 12.2411 85.8598 12.7366L84.6 16.1843H82.7607L84.0205 12.7366ZM127.744 8.18452L120.341 28.291H69.8015L79.5901 0.00839869L78.8679 0H12.2788L11.208 2.94794H28.0138L20.6607 23.151H28.2741L35.6272 2.94794H70.8261L60.9996 31.2767H119.24H124.712L133.212 8.18452H127.744Z" fill="#ED1C24"/>
<path d="M88.4592 1.55799C88.2241 1.43201 87.9469 1.36482 87.6236 1.36482C87.0566 1.36482 86.5695 1.47821 86.1622 1.70917C85.8934 1.48241 85.5449 1.36482 85.1165 1.36482C84.6 1.36482 84.1927 1.43621 83.8861 1.57899L83.9491 1.40682H82.093L80.2621 6.43763H82.1182L83.5922 2.38107C83.6468 2.23409 83.7812 2.1585 83.9953 2.1585C84.2053 2.1585 84.2851 2.23409 84.2305 2.38946L82.7607 6.43763H84.6084L86.0866 2.39786C86.137 2.25089 86.2756 2.1753 86.4897 2.1753C86.7039 2.1753 86.7795 2.25509 86.7249 2.40626L85.2551 6.43763H87.107L88.686 2.09551C88.7742 1.86875 88.6944 1.68817 88.4592 1.55799ZM135.009 1.41102L135.379 0.394775H133.527L133.157 1.41102H132.321L132.057 2.1501H132.888L131.767 5.21982C131.595 5.69855 131.561 6.0219 131.662 6.18987C131.767 6.35785 132.233 6.44183 133.069 6.44183H134.24L134.547 5.59357C134.102 5.59357 133.821 5.56837 133.707 5.51798C133.594 5.46759 133.564 5.3668 133.619 5.21982L134.732 2.1543H135.731L136 1.41522H135.009V1.41102ZM109.364 1.56219C109.145 1.43201 108.855 1.36482 108.486 1.36482C107.969 1.36482 107.558 1.43201 107.264 1.57059L107.327 1.40682H105.471L103.64 6.43763H105.496L106.97 2.38107C107.025 2.23409 107.159 2.1585 107.369 2.1585C107.587 2.1585 107.663 2.23409 107.604 2.38946L107.209 3.48549H109.057L109.569 2.08291C109.649 1.86875 109.578 1.69657 109.364 1.56219ZM103.665 1.61259C103.291 1.44881 102.825 1.36482 102.258 1.36482C100.788 1.36482 99.9276 1.71757 99.6715 2.42726L98.5712 5.44239C98.3109 6.15208 98.9198 6.50482 100.385 6.50482C101.813 6.50482 102.653 6.16468 102.901 5.48438L104.026 2.38107C104.161 2.03672 104.039 1.78056 103.665 1.61259ZM102.174 2.39366L101.057 5.46759C100.99 5.63976 100.856 5.72375 100.642 5.72375C100.427 5.72375 100.348 5.63976 100.411 5.46759L101.532 2.39366C101.586 2.22989 101.729 2.1459 101.943 2.1459C102.157 2.1501 102.233 2.22989 102.174 2.39366ZM125.224 1.61259C124.851 1.44881 124.385 1.36482 123.818 1.36482C122.348 1.36482 121.483 1.71757 121.231 2.42726L120.131 5.44239C119.875 6.15208 120.475 6.50482 121.945 6.50482C123.373 6.50482 124.212 6.16468 124.46 5.48438L125.59 2.38107C125.716 2.03672 125.594 1.78056 125.224 1.61259ZM123.738 2.39366L122.617 5.46759C122.554 5.63976 122.419 5.72375 122.205 5.72375C121.987 5.72375 121.911 5.63976 121.974 5.46759L123.095 2.39366C123.154 2.22989 123.293 2.1459 123.507 2.1459C123.721 2.1501 123.793 2.22989 123.738 2.39366ZM113.638 3.87183C112.727 3.53169 112.244 3.29652 112.19 3.15794C112.139 3.01937 112.16 2.8136 112.261 2.54064C112.358 2.27608 112.521 2.1459 112.761 2.1459C112.996 2.1459 113.038 2.35587 112.883 2.7758L112.626 3.38051H114.432L114.798 2.38527C115.045 1.70917 114.466 1.36482 113.063 1.36482C111.619 1.36482 110.766 1.71757 110.506 2.42726L110.262 3.10755C110.161 3.37631 110.191 3.57788 110.342 3.71226C110.497 3.84664 110.997 4.0818 111.845 4.42195C112.06 4.54373 112.089 4.82089 111.934 5.24502C111.816 5.56417 111.648 5.72375 111.43 5.72375C111.211 5.72375 111.131 5.63976 111.194 5.47178L111.581 4.41355H109.729L109.338 5.48858C109.091 6.16888 109.687 6.50902 111.123 6.50902C112.593 6.50902 113.458 6.15628 113.718 5.44659L113.991 4.69071C114.113 4.35056 113.995 4.0776 113.638 3.87183ZM119.963 1.57899C119.656 1.43621 119.287 1.36482 118.867 1.36482C118.447 1.36482 118.052 1.44461 117.691 1.60419L117.607 1.40682H116.204L113.983 7.50427H115.839L116.271 6.31585C116.477 6.44183 116.847 6.50482 117.363 6.50482C117.741 6.50482 118.081 6.44183 118.388 6.31165C118.695 6.18567 118.888 6.0177 118.967 5.80353L120.286 2.1837C120.378 1.92754 120.273 1.72177 119.963 1.57899ZM118.363 2.37687L117.225 5.49698C117.17 5.64816 117.032 5.72375 116.817 5.72375C116.595 5.72375 116.515 5.65236 116.565 5.50118L117.703 2.37687C117.758 2.22149 117.897 2.1459 118.119 2.1459C118.338 2.1501 118.417 2.22569 118.363 2.37687ZM93.6202 1.61259C93.2507 1.44881 92.7803 1.36482 92.2134 1.36482C90.7437 1.36482 89.8786 1.71757 89.6224 2.42726L88.5264 5.44239C88.2702 6.15208 88.875 6.50482 90.3405 6.50482C91.7683 6.50482 92.6082 6.16468 92.8559 5.48438L93.9856 2.38107C94.1115 2.03672 93.9898 1.78056 93.6202 1.61259ZM92.1294 2.39366L91.0124 5.46759C90.9494 5.63976 90.815 5.72375 90.6009 5.72375C90.3825 5.72375 90.3069 5.63976 90.3699 5.46759L91.4869 2.39366C91.5499 2.22989 91.6843 2.1459 91.9027 2.1459C92.1126 2.1501 92.1882 2.22989 92.1294 2.39366ZM97.723 2.1501H98.7224L98.9912 1.41102H97.9917L98.3613 0.394775H96.5094L96.1398 1.41102H95.3083L95.0396 2.1501H95.8711L94.754 5.21982C94.5819 5.69855 94.5483 6.0219 94.6491 6.18987C94.7498 6.35785 95.2202 6.44183 96.06 6.44183H97.2274L97.5382 5.59357C97.0889 5.59357 96.8117 5.56837 96.6983 5.51798C96.585 5.46759 96.5556 5.3668 96.6059 5.21982L97.723 2.1501ZM130.927 1.56219C130.709 1.43201 130.415 1.36482 130.045 1.36482C129.533 1.36482 129.121 1.43201 128.823 1.57059L128.882 1.40682H127.03L125.199 6.43763H127.051L128.529 2.38107C128.58 2.23409 128.718 2.1585 128.933 2.1585C129.142 2.1585 129.226 2.23409 129.168 2.38946L128.769 3.48549H130.621L131.133 2.08291C131.209 1.86875 131.141 1.69657 130.927 1.56219ZM19.464 28.1692L17.822 30.903L18.2504 28.1692H16.3774L14.8153 30.903L15.1638 28.1692H13.3749L12.8416 33.2001H14.9749L16.2557 31.1424L16.0835 33.2001H18.1202L21.2487 28.1692H19.464ZM11.5104 28.375C11.1367 28.2112 10.6663 28.1273 10.0994 28.1273C8.62965 28.1273 7.76879 28.48 7.51263 29.1897L6.4124 32.2048C6.15204 32.9145 6.75675 33.2673 8.22652 33.2673C9.6543 33.2673 10.4942 32.9271 10.7419 32.2468L11.8757 29.1435C12.0017 28.7991 11.8799 28.543 11.5104 28.375ZM10.0196 29.1561L8.89841 32.23C8.83542 32.398 8.70104 32.4862 8.48688 32.4862C8.27271 32.4862 8.19292 32.4022 8.25591 32.23L9.37714 29.1561C9.43593 28.9923 9.57451 28.9083 9.78867 28.9083C10.0028 28.9083 10.0784 28.9923 10.0196 29.1561ZM5.97987 28.3414C5.66912 28.2028 5.30377 28.1315 4.88384 28.1315C4.4639 28.1315 4.07337 28.2112 3.71222 28.3708L3.62823 28.1734H2.22145L0 34.2709H1.85611L2.28444 33.0867C2.49441 33.2085 2.85975 33.2715 3.38047 33.2715C3.75422 33.2715 4.09436 33.2085 4.40511 33.0825C4.71587 32.9565 4.90484 32.7885 4.98462 32.5744L6.29902 28.9545C6.3956 28.6858 6.29062 28.4842 5.97987 28.3414ZM4.37572 29.1393L3.24189 32.2594C3.1873 32.4148 3.04872 32.4904 2.83456 32.4904C2.61199 32.4904 2.52801 32.4148 2.5826 32.2678L3.72062 29.1393C3.77521 28.9839 3.91379 28.9125 4.13636 28.9125C4.35472 28.9083 4.43451 28.9839 4.37572 29.1393ZM23.2266 31.0626H25.721L26.4139 29.1477C26.6616 28.4674 26.0569 28.1315 24.5998 28.1315C23.1594 28.1315 22.3069 28.4842 22.0508 29.1939L20.9547 32.209C20.6986 32.9187 21.2865 33.2715 22.7311 33.2715C24.184 33.2715 25.0365 32.9313 25.2843 32.251L25.658 31.2264H23.8103L23.4449 32.2342C23.382 32.4022 23.2434 32.4862 23.0334 32.4862C22.815 32.4862 22.7395 32.4022 22.8024 32.23L23.2266 31.0626ZM23.9195 29.1561C23.9825 28.9923 24.1168 28.9083 24.3352 28.9083C24.5452 28.9083 24.625 28.9923 24.5662 29.1561L24.1462 30.3067H23.5037L23.9195 29.1561ZM55.6539 30.8064L55.8387 28.1692H53.9826V30.819C53.9826 32.2888 53.9532 33.0993 53.8944 33.2547C53.8356 33.4184 53.7432 33.515 53.613 33.5486C53.4829 33.5822 53.1763 33.599 52.6892 33.599L52.4456 34.2709H53.739C54.1842 34.2709 54.5453 34.2163 54.8351 34.1071C55.1248 33.9979 55.4356 33.6872 55.7715 33.1707L59.026 28.1734H57.2161L55.6539 30.8064ZM41.9221 28.3162C41.7163 28.1902 41.3552 28.1273 40.8386 28.1273C40.4649 28.1273 40.1206 28.1902 39.8098 28.3162C39.499 28.4422 39.3059 28.6144 39.2261 28.8243L37.9117 32.4442C37.8151 32.7003 37.9117 32.8977 38.193 33.0489C38.4744 33.1959 38.8523 33.2715 39.3269 33.2715C39.7342 33.2715 40.1247 33.1917 40.5027 33.0321L40.5993 33.2001H41.9977L44.2611 26.9766H42.4092L41.9221 28.3162ZM41.6281 29.1309L40.4901 32.2552C40.4355 32.4106 40.2969 32.4862 40.0828 32.4862C39.8602 32.4862 39.7762 32.4106 39.8308 32.2552L40.9688 29.1351C41.0234 28.9797 41.162 28.9083 41.3846 28.9083C41.5987 28.9083 41.6785 28.9839 41.6281 29.1309ZM52.3406 28.3078C52.1055 28.186 51.8157 28.1273 51.4798 28.1273C50.9297 28.1273 50.5223 28.1902 50.2536 28.3162L50.7407 26.9766H48.8888L46.6211 33.2001H48.0279L48.2463 33.0321C48.5486 33.1917 48.8804 33.2715 49.2457 33.2715C49.7203 33.2715 50.1486 33.2001 50.5391 33.0489C50.9297 32.9019 51.169 32.7003 51.2614 32.4442L52.5758 28.8243C52.6556 28.6018 52.5758 28.4296 52.3406 28.3078ZM50.6105 29.1393L49.4725 32.2594C49.4179 32.4148 49.2835 32.4904 49.0652 32.4904C48.8426 32.4904 48.7628 32.4148 48.8174 32.2594L49.9554 29.1351C50.01 28.9881 50.1486 28.9125 50.367 28.9125C50.5811 28.9083 50.6651 28.9839 50.6105 29.1393ZM32.0536 28.3246C31.8352 28.1944 31.5455 28.1273 31.1759 28.1273C30.6594 28.1273 30.2479 28.1944 29.9539 28.333L30.0169 28.1692H28.165L26.3299 33.2001H28.186L29.6642 29.1477C29.7146 28.9965 29.8489 28.9251 30.0631 28.9251C30.2773 28.9251 30.3571 29.0049 30.3025 29.1561L29.9035 30.2479H31.7513L32.2636 28.8411C32.3392 28.6312 32.2678 28.459 32.0536 28.3246ZM35.9674 28.1273C34.527 28.1273 33.6746 28.48 33.4184 29.1897L32.3182 32.2048C32.062 32.9145 32.6499 33.2673 34.0945 33.2673C35.5517 33.2673 36.4041 32.9271 36.6519 32.2468L37.0214 31.2222H35.1695L34.8 32.23C34.7412 32.398 34.6026 32.482 34.3884 32.482C34.1701 32.482 34.0945 32.398 34.1575 32.2258L34.5858 31.0542H37.0802L37.7731 29.1393C38.0293 28.4674 37.4246 28.1273 35.9674 28.1273ZM35.9254 29.1561L35.5097 30.3067H34.8672L35.2871 29.1561C35.3459 28.9923 35.4845 28.9083 35.6986 28.9083C35.9128 28.9083 35.9884 28.9923 35.9254 29.1561Z" fill="#ED1C24"/>
</svg>
