<svg width="260" height="260" viewBox="0 0 260 260" fill="none" xmlns="http://www.w3.org/2000/svg">
<g clip-path="url(#clip0_11013_3)">
<path d="M139.173 0.993649C111.605 -0.966658 84.1336 5.95593 60.7865 20.7466C37.4395 35.5373 19.4445 57.4181 9.43963 83.1814C-0.565267 108.945 -2.05388 137.236 5.192 163.907C12.4379 190.578 28.0372 214.226 49.7031 231.385C71.369 248.545 97.962 258.312 125.584 259.256C153.205 260.199 180.403 252.27 203.189 236.629C225.976 220.989 243.153 198.46 252.202 172.346C261.252 146.231 261.697 117.905 253.474 91.5189L235.536 97.1092C242.565 119.662 242.184 143.873 234.449 166.194C226.715 188.515 212.033 207.77 192.557 221.139C173.081 234.507 149.834 241.285 126.225 240.478C102.616 239.671 79.8866 231.323 61.3682 216.657C42.8498 201.99 29.5167 181.777 23.3235 158.981C17.1302 136.184 18.4026 112.004 26.954 89.983C35.5055 67.9624 50.8862 49.2603 70.8415 36.6183C90.7968 23.9764 114.277 18.0595 137.84 19.735L139.173 0.993649Z" fill="#ED1C24"/>
<path d="M255.319 98.2453C247.96 69.1161 230.689 43.4577 206.472 25.676C182.255 7.89424 152.602 -0.901412 122.606 0.799336L123.67 19.5579C149.308 18.1042 174.653 25.6221 195.352 40.8206C216.051 56.0191 230.813 77.9499 237.103 102.847L255.319 98.2453Z" fill="#FF9983"/>
</g>
<defs>
<clipPath id="clip0_11013_3">
<rect width="260" height="260" fill="white"/>
</clipPath>
</defs>
</svg>
