<svg width="260" height="260" viewBox="0 0 260 260" fill="none" xmlns="http://www.w3.org/2000/svg">
<path d="M55.1289 24.1752C32.5119 40.1972 15.6219 63.0432 6.93593 89.3642C-1.75107 115.685 -1.77708 144.096 6.85992 170.433C15.4979 196.77 32.3449 219.647 54.9329 235.711C77.5199 251.775 104.659 260.18 132.372 259.696C160.085 259.211 186.914 249.861 208.926 233.017C230.938 216.173 246.975 192.721 254.686 166.098C262.397 139.475 261.377 111.082 251.776 85.0812C242.174 59.0812 224.496 36.8392 201.332 21.6182L190.984 37.3652C210.783 50.3752 225.893 69.3852 234.1 91.6092C242.307 113.832 243.178 138.101 236.587 160.856C229.996 183.611 216.289 203.656 197.475 218.053C178.661 232.45 155.73 240.442 132.043 240.856C108.356 241.27 85.1589 234.086 65.8529 220.355C46.5469 206.625 32.1479 187.071 24.7649 164.561C17.3819 142.05 17.4049 117.766 24.8289 95.2692C32.2539 72.7722 46.6899 53.2452 66.0209 39.5512L55.1289 24.1752Z" fill="#ED1C24"/>
<path d="M207.043 25.658C182.804 7.76096 153.089 -1.14005 123.003 0.48595C92.9161 2.11095 64.3341 14.161 42.1641 34.566L54.9251 48.43C73.8741 30.99 98.3031 20.69 124.019 19.301C149.735 17.912 175.132 25.519 195.85 40.816L207.043 25.658Z" fill="#FF9983"/>
</svg>
