<svg width="260" height="260" viewBox="0 0 260 260" fill="none" xmlns="http://www.w3.org/2000/svg">
<g clip-path="url(#clip0_11013_8)">
<path d="M15.3825 191.953C28.5264 216.356 49.1418 235.906 74.2067 247.738C99.2715 259.569 127.467 263.061 154.661 257.7C181.855 252.339 206.616 238.407 225.315 217.948C244.014 197.488 255.667 171.576 258.565 144.011C261.464 116.446 255.456 88.6774 241.423 64.7756C227.389 40.8739 206.068 22.0963 180.584 11.1955C155.1 0.294808 126.795 -2.15571 99.8173 4.20321C72.8395 10.5621 48.6082 25.396 30.6755 46.5304L45.043 58.7213C60.3705 40.6573 81.0816 27.9783 104.14 22.5432C127.199 17.1081 151.392 19.2026 173.174 28.5197C194.955 37.8369 213.179 53.8865 225.174 74.316C237.169 94.7454 242.304 118.48 239.826 142.041C237.348 165.601 227.388 187.749 211.406 205.236C195.424 222.723 174.26 234.631 151.017 239.213C127.773 243.795 103.674 240.811 82.2502 230.698C60.8266 220.585 43.2061 203.875 31.9717 183.018L15.3825 191.953Z" fill="#ED1C24"/>
<path d="M35.3816 41.3549C14.6616 63.2303 2.20404 91.637 0.148 121.697C-1.90804 151.758 6.56573 181.596 24.1143 206.089L39.4313 195.115C24.4321 174.18 17.1893 148.676 18.9467 122.983C20.704 97.2898 31.3518 73.0099 49.0617 54.3124L35.3816 41.3549Z" fill="#FF9983"/>
</g>
<defs>
<clipPath id="clip0_11013_8">
<rect width="260" height="260" fill="white"/>
</clipPath>
</defs>
</svg>
